<?xml version="1.0" encoding="UTF-8" standalone="no"?>
<!DOCTYPE svg PUBLIC "-//W3C//DTD SVG 1.1//EN"
 "http://www.w3.org/Graphics/SVG/1.1/DTD/svg11.dtd">
<!-- Generated by graphviz version 5.0.0 (20220707.1540)
 -->
<!-- Title: StorageDiagram Pages: 1 -->
<svg width="1759pt" height="289pt"
 viewBox="0.00 0.00 1758.63 289.00" xmlns="http://www.w3.org/2000/svg" xmlns:xlink="http://www.w3.org/1999/xlink">
<g id="graph0" class="graph" transform="scale(1 1) rotate(0) translate(4 285)">
<title>StorageDiagram</title>
<polygon fill="white" stroke="transparent" points="-4,4 -4,-285 1754.63,-285 1754.63,4 -4,4"/>
<!-- 5 -->
<g id="node1" class="node">
<title>5</title>
<polygon fill="#f2f2f2" stroke="black" points="0,-106.9 0,-280.5 759.95,-280.5 759.95,-106.9 0,-106.9"/>
<text text-anchor="middle" x="158.09" y="-206.3" font-family="Times,serif" font-size="14.00">&lt;&lt;Contract&gt;&gt;</text>
<text text-anchor="middle" x="158.09" y="-189.5" font-family="Times,serif" font-size="14.00">EmissionsController</text>
<text text-anchor="middle" x="158.09" y="-172.7" font-family="Times,serif" font-size="14.00">0xebfd9cD78510c591eDa8735D0F8a87414eF27A83</text>
<polyline fill="none" stroke="black" points="316.17,-106.9 316.17,-280.5 "/>
<text text-anchor="middle" x="334.29" y="-263.9" font-family="Times,serif" font-size="14.00">slot</text>
<polyline fill="none" stroke="black" points="316.17,-255.7 352.4,-255.7 "/>
<text text-anchor="middle" x="334.29" y="-239.1" font-family="Times,serif" font-size="14.00">0</text>
<polyline fill="none" stroke="black" points="316.17,-230.9 352.4,-230.9 "/>
<text text-anchor="middle" x="334.29" y="-214.3" font-family="Times,serif" font-size="14.00">1</text>
<polyline fill="none" stroke="black" points="316.17,-206.1 352.4,-206.1 "/>
<text text-anchor="middle" x="334.29" y="-189.5" font-family="Times,serif" font-size="14.00">2</text>
<polyline fill="none" stroke="black" points="316.17,-181.3 352.4,-181.3 "/>
<text text-anchor="middle" x="334.29" y="-164.7" font-family="Times,serif" font-size="14.00">3</text>
<polyline fill="none" stroke="black" points="316.17,-156.5 352.4,-156.5 "/>
<text text-anchor="middle" x="334.29" y="-139.9" font-family="Times,serif" font-size="14.00">4</text>
<polyline fill="none" stroke="black" points="316.17,-131.7 352.4,-131.7 "/>
<text text-anchor="middle" x="334.29" y="-115.1" font-family="Times,serif" font-size="14.00">5</text>
<polyline fill="none" stroke="black" points="352.4,-106.9 352.4,-280.5 "/>
<text text-anchor="middle" x="556.18" y="-263.9" font-family="Times,serif" font-size="14.00">type: &lt;inherited contract&gt;.variable (bytes)</text>
<polyline fill="none" stroke="black" points="352.4,-255.7 759.95,-255.7 "/>
<text text-anchor="middle" x="453.12" y="-239.1" font-family="Times,serif" font-size="14.00">bool: Initializable._initialized (1)</text>
<polyline fill="none" stroke="black" points="553.84,-230.9 553.84,-255.7 "/>
<text text-anchor="middle" x="656.9" y="-239.1" font-family="Times,serif" font-size="14.00">bool: Initializable._initializing (1)</text>
<polyline fill="none" stroke="black" points="352.4,-230.9 759.95,-230.9 "/>
<text text-anchor="middle" x="556.18" y="-214.3" font-family="Times,serif" font-size="14.00">EpochHistory: epochs (32)</text>
<polyline fill="none" stroke="black" points="352.4,-206.1 759.95,-206.1 "/>
<text text-anchor="middle" x="556.18" y="-189.5" font-family="Times,serif" font-size="14.00">mapping(address=&gt;uint32): stakingContractAddTime (32)</text>
<polyline fill="none" stroke="black" points="352.4,-181.3 759.95,-181.3 "/>
<text text-anchor="middle" x="556.18" y="-164.7" font-family="Times,serif" font-size="14.00">IVotes[]: stakingContracts (32)</text>
<polyline fill="none" stroke="black" points="352.4,-156.5 759.95,-156.5 "/>
<text text-anchor="middle" x="556.18" y="-139.9" font-family="Times,serif" font-size="14.00">DialData[]: dials (32)</text>
<polyline fill="none" stroke="black" points="352.4,-131.7 759.95,-131.7 "/>
<text text-anchor="middle" x="556.18" y="-115.1" font-family="Times,serif" font-size="14.00">mapping(address=&gt;VoterPreferences): voterPreferences (32)</text>
</g>
<!-- 1 -->
<g id="node2" class="node">
<title>1</title>
<polygon fill="#f2f2f2" stroke="black" points="871.28,-211.9 871.28,-261.5 1274.34,-261.5 1274.34,-211.9 871.28,-211.9"/>
<text text-anchor="middle" x="918.17" y="-240.9" font-family="Times,serif" font-size="14.00">&lt;&lt;Struct&gt;&gt;</text>
<text text-anchor="middle" x="918.17" y="-224.1" font-family="Times,serif" font-size="14.00">EpochHistory</text>
<polyline fill="none" stroke="black" points="965.05,-211.9 965.05,-261.5 "/>
<text text-anchor="middle" x="983.16" y="-244.9" font-family="Times,serif" font-size="14.00">slot</text>
<polyline fill="none" stroke="black" points="965.05,-236.7 1001.28,-236.7 "/>
<text text-anchor="middle" x="983.16" y="-220.1" font-family="Times,serif" font-size="14.00">0</text>
<polyline fill="none" stroke="black" points="1001.28,-211.9 1001.28,-261.5 "/>
<text text-anchor="middle" x="1137.81" y="-244.9" font-family="Times,serif" font-size="14.00">type: variable (bytes)</text>
<polyline fill="none" stroke="black" points="1001.28,-236.7 1274.34,-236.7 "/>
<text text-anchor="middle" x="1070.71" y="-220.1" font-family="Times,serif" font-size="14.00">uint32: startEpoch (4)</text>
<polyline fill="none" stroke="black" points="1140.14,-211.9 1140.14,-236.7 "/>
<text text-anchor="middle" x="1207.24" y="-220.1" font-family="Times,serif" font-size="14.00">uint32: lastEpoch (4)</text>
</g>
<!-- 5&#45;&gt;1 -->
<g id="edge1" class="edge">
<title>5:5&#45;&gt;1</title>
<path fill="none" stroke="black" d="M759.95,-218.7C792.51,-218.7 826.95,-219.69 860.6,-221.21"/>
<polygon fill="black" stroke="black" points="860.86,-224.72 871.02,-221.69 861.19,-217.73 860.86,-224.72"/>
</g>
<!-- 3 -->
<g id="node4" class="node">
<title>3</title>
<polygon fill="#f2f2f2" stroke="black" points="795.95,-94.1 795.95,-193.3 1349.67,-193.3 1349.67,-94.1 795.95,-94.1"/>
<text text-anchor="middle" x="836.46" y="-147.9" font-family="Times,serif" font-size="14.00">&lt;&lt;Struct&gt;&gt;</text>
<text text-anchor="middle" x="836.46" y="-131.1" font-family="Times,serif" font-size="14.00">DialData</text>
<polyline fill="none" stroke="black" points="876.98,-94.1 876.98,-193.3 "/>
<text text-anchor="middle" x="895.09" y="-176.7" font-family="Times,serif" font-size="14.00">slot</text>
<polyline fill="none" stroke="black" points="876.98,-168.5 913.2,-168.5 "/>
<text text-anchor="middle" x="895.09" y="-151.9" font-family="Times,serif" font-size="14.00">0</text>
<polyline fill="none" stroke="black" points="876.98,-143.7 913.2,-143.7 "/>
<text text-anchor="middle" x="895.09" y="-127.1" font-family="Times,serif" font-size="14.00">1</text>
<polyline fill="none" stroke="black" points="876.98,-118.9 913.2,-118.9 "/>
<text text-anchor="middle" x="895.09" y="-102.3" font-family="Times,serif" font-size="14.00">2</text>
<polyline fill="none" stroke="black" points="913.2,-94.1 913.2,-193.3 "/>
<text text-anchor="middle" x="1131.44" y="-176.7" font-family="Times,serif" font-size="14.00">type: variable (bytes)</text>
<polyline fill="none" stroke="black" points="913.2,-168.5 1349.67,-168.5 "/>
<text text-anchor="middle" x="970.58" y="-151.9" font-family="Times,serif" font-size="14.00">bool: disabled (1)</text>
<polyline fill="none" stroke="black" points="1027.96,-143.7 1027.96,-168.5 "/>
<text text-anchor="middle" x="1078.74" y="-151.9" font-family="Times,serif" font-size="14.00">bool: notify (1)</text>
<polyline fill="none" stroke="black" points="1129.51,-143.7 1129.51,-168.5 "/>
<text text-anchor="middle" x="1175.22" y="-151.9" font-family="Times,serif" font-size="14.00">uint8: cap (1)</text>
<polyline fill="none" stroke="black" points="1220.93,-143.7 1220.93,-168.5 "/>
<text text-anchor="middle" x="1285.3" y="-151.9" font-family="Times,serif" font-size="14.00">uint96: balance (12)</text>
<polyline fill="none" stroke="black" points="913.2,-143.7 1349.67,-143.7 "/>
<text text-anchor="middle" x="1131.44" y="-127.1" font-family="Times,serif" font-size="14.00">address: recipient (20)</text>
<polyline fill="none" stroke="black" points="913.2,-118.9 1349.67,-118.9 "/>
<text text-anchor="middle" x="1131.44" y="-102.3" font-family="Times,serif" font-size="14.00">HistoricVotes[]: voteHistory (32)</text>
</g>
<!-- 5&#45;&gt;3 -->
<g id="edge2" class="edge">
<title>5:16&#45;&gt;3</title>
<path fill="none" stroke="black" d="M759.95,-143.7C768.42,-143.7 777.01,-143.7 785.69,-143.7"/>
<polygon fill="black" stroke="black" points="785.9,-147.2 795.9,-143.7 785.9,-140.2 785.9,-147.2"/>
</g>
<!-- 4 -->
<g id="node5" class="node">
<title>4</title>
<polygon fill="#f2f2f2" stroke="black" points="841.74,-0.5 841.74,-74.9 1303.88,-74.9 1303.88,-0.5 841.74,-0.5"/>
<text text-anchor="middle" x="898.32" y="-41.9" font-family="Times,serif" font-size="14.00">&lt;&lt;Struct&gt;&gt;</text>
<text text-anchor="middle" x="898.32" y="-25.1" font-family="Times,serif" font-size="14.00">VoterPreferences</text>
<polyline fill="none" stroke="black" points="954.91,-0.5 954.91,-74.9 "/>
<text text-anchor="middle" x="973.02" y="-58.3" font-family="Times,serif" font-size="14.00">slot</text>
<polyline fill="none" stroke="black" points="954.91,-50.1 991.13,-50.1 "/>
<text text-anchor="middle" x="973.02" y="-33.5" font-family="Times,serif" font-size="14.00">0</text>
<polyline fill="none" stroke="black" points="954.91,-25.3 991.13,-25.3 "/>
<text text-anchor="middle" x="973.02" y="-8.7" font-family="Times,serif" font-size="14.00">1</text>
<polyline fill="none" stroke="black" points="991.13,-0.5 991.13,-74.9 "/>
<text text-anchor="middle" x="1147.51" y="-58.3" font-family="Times,serif" font-size="14.00">type: variable (bytes)</text>
<polyline fill="none" stroke="black" points="991.13,-50.1 1303.88,-50.1 "/>
<text text-anchor="middle" x="1147.51" y="-33.5" font-family="Times,serif" font-size="14.00">uint256: dialWeights (32)</text>
<polyline fill="none" stroke="black" points="991.13,-25.3 1303.88,-25.3 "/>
<text text-anchor="middle" x="1064.85" y="-8.7" font-family="Times,serif" font-size="14.00">uint128: votesCast (16)</text>
<polyline fill="none" stroke="black" points="1138.57,-0.5 1138.57,-25.3 "/>
<text text-anchor="middle" x="1221.22" y="-8.7" font-family="Times,serif" font-size="14.00">uint32: lastSourcePoke (4)</text>
</g>
<!-- 5&#45;&gt;4 -->
<g id="edge3" class="edge">
<title>5:20&#45;&gt;4</title>
<path fill="none" stroke="black" d="M759.95,-119.7C782.27,-119.7 776.06,-94.81 795.95,-84.7 807.43,-78.87 819.49,-73.74 831.88,-69.24"/>
<polygon fill="black" stroke="black" points="833.13,-72.51 841.42,-65.91 830.82,-65.9 833.13,-72.51"/>
</g>
<!-- 2 -->
<g id="node3" class="node">
<title>2</title>
<polygon fill="#f2f2f2" stroke="black" points="1385.67,-81.9 1385.67,-131.5 1750.63,-131.5 1750.63,-81.9 1385.67,-81.9"/>
<text text-anchor="middle" x="1432.55" y="-110.9" font-family="Times,serif" font-size="14.00">&lt;&lt;Struct&gt;&gt;</text>
<text text-anchor="middle" x="1432.55" y="-94.1" font-family="Times,serif" font-size="14.00">HistoricVotes</text>
<polyline fill="none" stroke="black" points="1479.43,-81.9 1479.43,-131.5 "/>
<text text-anchor="middle" x="1497.55" y="-114.9" font-family="Times,serif" font-size="14.00">slot</text>
<polyline fill="none" stroke="black" points="1479.43,-106.7 1515.66,-106.7 "/>
<text text-anchor="middle" x="1497.55" y="-90.1" font-family="Times,serif" font-size="14.00">0</text>
<polyline fill="none" stroke="black" points="1515.66,-81.9 1515.66,-131.5 "/>
<text text-anchor="middle" x="1633.14" y="-114.9" font-family="Times,serif" font-size="14.00">type: variable (bytes)</text>
<polyline fill="none" stroke="black" points="1515.66,-106.7 1750.63,-106.7 "/>
<text text-anchor="middle" x="1576.93" y="-90.1" font-family="Times,serif" font-size="14.00">uint128: votes (16)</text>
<polyline fill="none" stroke="black" points="1638.21,-81.9 1638.21,-106.7 "/>
<text text-anchor="middle" x="1694.42" y="-90.1" font-family="Times,serif" font-size="14.00">uint32: epoch (4)</text>
</g>
<!-- 3&#45;&gt;2 -->
<g id="edge4" class="edge">
<title>3:15&#45;&gt;2</title>
<path fill="none" stroke="black" d="M1349.67,-106.7C1358.08,-106.7 1366.68,-106.7 1375.36,-106.7"/>
<polygon fill="black" stroke="black" points="1375.59,-110.2 1385.59,-106.7 1375.59,-103.2 1375.59,-110.2"/>
</g>
</g>
</svg>
